<?xml version="1.0" standalone="no"?><!DOCTYPE svg PUBLIC "-//W3C//DTD SVG 1.1//EN" "http://www.w3.org/Graphics/SVG/1.1/DTD/svg11.dtd"><svg t="1777252956999" class="icon" viewBox="0 0 1024 1024" version="1.1" xmlns="http://www.w3.org/2000/svg" p-id="4172" xmlns:xlink="http://www.w3.org/1999/xlink" width="200" height="200"><path d="M771.21 566.21c-109.22-0.08-197.02 88.11-197.12 197.01-0.07 108.71 88.29 197 196.99 197.01 108.72 0.03 196.96-88.18 197.03-196.97 0.07-108.67-87.8-196.94-196.9-197.05z m-1.3 340.15c-19.36 0.05-32.98-13.51-33.02-32.87-0.05-19.43 13.98-33.52 33.4-33.55 19.49-0.04 33.15 13.81 33.04 33.5-0.11 19.51-13.68 32.88-33.42 32.92z m24.87-88.55h-47.52c-3.15-61.94-6.34-123.81-9.48-185.86h66.48c-3.17 62.03-6.31 123.89-9.48 185.86zM276.25 227.71c23.35 0 42.28-18.31 42.28-40.87V105.1c0-22.58-18.93-40.88-42.28-40.88s-42.27 18.3-42.27 40.88v81.74c-0.01 22.57 18.91 40.87 42.27 40.87zM699.03 227.71c23.35 0 42.27-18.31 42.27-40.87V105.1c0-22.58-18.94-40.88-42.27-40.88-23.35 0-42.28 18.3-42.28 40.88v81.74c-0.01 22.57 18.93 40.87 42.28 40.87zM487.63 227.71c23.35 0 42.27-18.31 42.27-40.87V105.1c0-22.58-18.93-40.88-42.27-40.88-23.35 0-42.27 18.3-42.27 40.88v81.74c0 22.57 18.92 40.87 42.27 40.87z" p-id="4173" fill="#1296db"></path><path d="M541.99 799.87H226.92c-19.46 0-35.23-15.26-35.23-34.06 0-18.81 15.77-34.05 35.23-34.05h314.31c4.7-34.83 17.13-67.21 35.5-95.37H233.97c-23.36 0-42.28-18.29-42.28-40.86 0-22.58 18.92-40.88 42.28-40.88h435.06c30.82-15.12 65.45-23.65 102.1-23.65 46.12 0 89.06 13.52 125.19 36.71V186.84c0-22.57-18.92-40.87-42.27-40.87h-70.47v40.87c0 45.15-37.86 81.74-84.55 81.74-46.7 0-84.56-36.59-84.56-81.74v-40.88H572.2v40.87c0 45.15-37.85 81.74-84.56 81.74-46.69 0-84.55-36.59-84.55-81.74v-40.87H360.8v40.87c0 45.15-37.85 81.74-84.55 81.74-46.69 0-84.55-36.59-84.55-81.74v-40.87h-70.48c-23.35 0-42.27 18.3-42.27 40.87v708.4c0 22.56 18.93 40.86 42.27 40.86h495.3c-38.86-34.75-65.95-82.4-74.53-136.22zM233.97 377.56h507.34c23.35 0 42.27 18.31 42.27 40.88 0 22.56-18.92 40.86-42.27 40.86H233.97c-23.36 0-42.28-18.3-42.28-40.86 0-22.58 18.93-40.88 42.28-40.88z" p-id="4174" fill="#1296db"></path></svg>